<svg width="160" height="30" fill="#ffffff" xmlns="http://www.w3.org/2000/svg" class="prefix__logo__cosmos">
    <path fill-rule="evenodd" clip-rule="evenodd"
        d="M17.778 21.69l-2.194-2.223c-.834.777-1.676 1.393-2.529 1.847-.851.454-1.87.68-3.055.68-.926 0-1.782-.18-2.57-.541a6.27 6.27 0 01-2.041-1.486 6.746 6.746 0 01-1.334-2.208 7.675 7.675 0 01-.471-2.708c0-.963.157-1.862.471-2.695.316-.833.76-1.56 1.334-2.18A6.376 6.376 0 017.43 8.704 6.09 6.09 0 0110 8.162c1.11 0 2.1.222 2.971.667.87.444 1.695 1.027 2.472 1.75L17.64 8.05a13.211 13.211 0 00-1.472-1.222 9.417 9.417 0 00-1.695-.958 9.843 9.843 0 00-2.014-.625 12.254 12.254 0 00-2.43-.223c-1.482 0-2.833.264-4.056.792a9.728 9.728 0 00-3.166 2.166 9.806 9.806 0 00-2.07 3.209A10.407 10.407 0 000 15.106c0 1.407.25 2.722.75 3.944a9.792 9.792 0 002.07 3.18 9.691 9.691 0 003.124 2.125c1.204.52 2.52.778 3.945.778.908 0 1.736-.079 2.486-.236a8.921 8.921 0 002.07-.694 10.39 10.39 0 001.764-1.084c.546-.416 1.069-.893 1.569-1.43M61.855 10.529c0-.647.276-1.197.829-1.65.552-.452 1.326-.679 2.32-.679.884 0 1.76.172 2.625.513.865.342 1.74.836 2.624 1.483l1.823-2.577a11.354 11.354 0 00-3.19-1.815c-1.133-.416-2.408-.624-3.827-.624-.957 0-1.841.134-2.647.402-.81.268-1.5.651-2.077 1.15a5.45 5.45 0 00-1.358 1.787c-.327.693-.493 1.465-.493 2.314 0 .906.143 1.672.429 2.3a4.413 4.413 0 001.248 1.608c.543.443 1.22.813 2.02 1.109.806.295 1.723.563 2.759.803.903.222 1.634.434 2.2.637.562.204 1.004.42 1.331.652.322.23.544.484.663.761.12.278.18.592.18.943 0 .758-.308 1.358-.925 1.801-.618.444-1.451.665-2.5.665-1.216 0-2.303-.217-3.26-.651-.959-.434-1.907-1.057-2.846-1.87l-2.044 2.438c1.16 1.053 2.422 1.834 3.784 2.342 1.363.508 2.79.762 4.282.762 1.013 0 1.944-.13 2.79-.388.843-.259 1.57-.638 2.17-1.136a5.251 5.251 0 001.413-1.83c.336-.72.506-1.542.506-2.466 0-.813-.133-1.52-.4-2.12a4.564 4.564 0 00-1.179-1.58c-.516-.452-1.17-.835-1.952-1.15-.783-.313-1.685-.6-2.699-.858a27.154 27.154 0 01-2.288-.638c-.598-.203-1.068-.425-1.413-.665-.341-.24-.576-.499-.705-.776s-.193-.61-.193-.997M99.673 10.803v13.859h3.375V5.337h-3.625l-5.893 9.138-5.894-9.138h-3.624v19.325h3.375V10.859l6.06 9.054h.11l6.116-9.11M131.409 15.106c0 .945-.162 1.838-.485 2.68a6.78 6.78 0 01-1.345 2.195 6.281 6.281 0 01-2.066 1.472c-.804.361-1.686.542-2.647.542a6.346 6.346 0 01-2.662-.556 6.476 6.476 0 01-2.093-1.5 6.83 6.83 0 01-1.359-2.208 7.423 7.423 0 01-.485-2.68c0-.945.162-1.838.485-2.68a6.783 6.783 0 011.345-2.195 6.278 6.278 0 012.065-1.472c.804-.361 1.687-.542 2.648-.542.961 0 1.849.185 2.662.556.813.37 1.511.87 2.093 1.5a6.82 6.82 0 011.359 2.208c.323.842.485 1.736.485 2.68zm3.576-.055c0-1.37-.249-2.667-.748-3.89a9.84 9.84 0 00-2.079-3.193c-.888-.908-1.95-1.625-3.189-2.153s-2.606-.792-4.103-.792c-1.498 0-2.865.269-4.104.806a10.146 10.146 0 00-3.216 2.18 9.764 9.764 0 00-2.107 3.208 10.187 10.187 0 00-.749 3.89c0 1.37.25 2.665.749 3.888a9.832 9.832 0 002.079 3.194c.887.907 1.95 1.625 3.189 2.153 1.238.527 2.606.791 4.103.791 1.497 0 2.865-.269 4.103-.805a10.134 10.134 0 003.217-2.18 9.76 9.76 0 002.107-3.209c.499-1.222.748-2.518.748-3.888zM149.17 10.529c0-.647.276-1.197.829-1.65.553-.452 1.326-.679 2.321-.679a7.09 7.09 0 012.624.513c.866.342 1.741.836 2.625 1.483l1.823-2.577a11.351 11.351 0 00-3.191-1.815c-1.132-.416-2.408-.624-3.826-.624-.958 0-1.842.134-2.648.402-.81.268-1.5.651-2.076 1.15a5.455 5.455 0 00-1.359 1.787c-.326.693-.492 1.465-.492 2.314 0 .906.143 1.672.428 2.3a4.424 4.424 0 001.248 1.608c.543.443 1.22.813 2.021 1.109a23.38 23.38 0 002.758.803c.903.222 1.635.434 2.201.637.562.204 1.004.42 1.331.652.322.23.543.484.663.761.12.278.18.592.18.943 0 .758-.309 1.358-.926 1.801-.617.444-1.45.665-2.5.665-1.216 0-2.303-.217-3.26-.651-.958-.434-1.906-1.057-2.846-1.87l-2.044 2.438c1.16 1.053 2.422 1.834 3.785 2.342s2.79.762 4.282.762c1.013 0 1.943-.13 2.79-.388.843-.259 1.57-.638 2.169-1.136a5.244 5.244 0 001.413-1.83c.336-.72.507-1.542.507-2.466 0-.813-.134-1.52-.401-2.12a4.555 4.555 0 00-1.179-1.58c-.515-.452-1.169-.835-1.952-1.15-.782-.313-1.685-.6-2.698-.858a27.19 27.19 0 01-2.288-.638c-.599-.203-1.068-.425-1.414-.665-.341-.24-.575-.499-.704-.776s-.194-.61-.194-.997M40.933 9.206l-9.249 9.237a7.37 7.37 0 01-.808-3.392c0-.941.162-1.831.485-2.67a6.747 6.747 0 011.344-2.187 6.279 6.279 0 012.064-1.466c.804-.36 1.686-.54 2.646-.54a6.353 6.353 0 013.518 1.018zm-.816 12.223c-.803.36-1.685.54-2.646.54a6.36 6.36 0 01-3.517-1.019l9.248-9.236a7.25 7.25 0 01.808 3.392c0 .94-.161 1.831-.484 2.67a6.74 6.74 0 01-1.344 2.186 6.275 6.275 0 01-2.065 1.467zm1.4 2.864a10.127 10.127 0 003.214-2.173 9.726 9.726 0 002.105-3.195c.5-1.218.749-2.51.749-3.874a10.118 10.118 0 00-1.84-5.875l6.015-6.008L49.37.781l-6.034 6.026a10.22 10.22 0 00-1.764-.957c-1.238-.526-2.605-.789-4.1-.789-1.497 0-2.864.268-4.102.803a10.133 10.133 0 00-3.214 2.172 9.731 9.731 0 00-2.106 3.196 10.12 10.12 0 00-.748 3.874 10.122 10.122 0 001.84 5.875l-6.015 6.007 2.39 2.387 6.034-6.025c.542.369 1.13.687 1.764.957 1.238.525 2.604.788 4.1.788 1.497 0 2.864-.268 4.102-.802z" />
</svg>