<svg width="68" height="34" fill="none" xmlns="http://www.w3.org/2000/svg">
    <circle cx="8.5" cy="25.5" r="8.5" fill="url(#prefix__paint0_linear_96_599)" />
    <mask id="prefix__a" style="mask-type:alpha" maskUnits="userSpaceOnUse" x="0" y="17" width="17" height="17">
        <circle cx="8.5" cy="25.5" r="8.5" fill="url(#prefix__paint1_linear_96_599)" />
    </mask>
    <g mask="url(#prefix__a)">
        <circle cx="15.5" cy="21.5" r="8.5" fill="url(#prefix__paint2_linear_96_599)" />
    </g>
    <g>
        <circle cx="59.5" cy="8.5" r="8.5" fill="url(#prefix__paint3_linear_96_599)" />
        <mask id="prefix__b" style="mask-type:alpha" maskUnits="userSpaceOnUse" x="51" y="0" width="17" height="17">
            <circle cx="59.5" cy="8.5" r="8.5" fill="url(#prefix__paint4_linear_96_599)" />
        </mask>
        <g mask="url(#prefix__b)">
            <circle cx="66.5" cy="4.5" r="8.5" fill="url(#prefix__paint5_linear_96_599)" />
        </g>
    </g>
    <g>
        <path fill-rule="evenodd" clip-rule="evenodd"
            d="M34 8.5c0 .12-.002.239-.007.357l.007.007V13a4 4 0 004 4h4.95l.014.012A8.5 8.5 0 1134 25.5V21a4 4 0 00-4-4h-4.068l-.01-.01A8.5 8.5 0 1134 8.5z"
            fill="url(#prefix__paint6_linear_96_599)" />
        <mask id="prefix__c" style="mask-type:alpha" maskUnits="userSpaceOnUse" x="17" y="0" width="34" height="34">
            <path fill-rule="evenodd" clip-rule="evenodd"
                d="M34 8.5c0 .12-.002.239-.007.357l.007.007V13a4 4 0 004 4h4.95l.014.012A8.5 8.5 0 1134 25.5V21a4 4 0 00-4-4h-4.068l-.01-.01A8.5 8.5 0 1134 8.5z"
                fill="url(#prefix__paint7_linear_96_599)" />
        </mask>
        <g mask="url(#prefix__c)">
            <circle cx="30.5" cy="4.5" r="8.5" fill="url(#prefix__paint8_linear_96_599)" />
            <circle cx="32.5" cy="25.5" r="8.5" fill="url(#prefix__paint9_linear_96_599)" />
        </g>
    </g>
    <defs>
        <linearGradient id="prefix__paint0_linear_96_599" x1="8" y1="18.5" x2="14" y2="37"
            gradientUnits="userSpaceOnUse">
            <stop stop-color="#01FFFD" />
            <stop offset="1" stop-color="#151DC8" />
        </linearGradient>
        <linearGradient id="prefix__paint1_linear_96_599" x1="5" y1="18.5" x2="12" y2="34"
            gradientUnits="userSpaceOnUse">
            <stop stop-color="#01FFFD" />
            <stop offset="1" stop-color="#1533C9" />
        </linearGradient>
        <linearGradient id="prefix__paint2_linear_96_599" x1="16" y1="18.5" x2="16" y2="31.5"
            gradientUnits="userSpaceOnUse">
            <stop stop-color="#01FFFD" />
            <stop offset="1" stop-color="#1433C9" />
        </linearGradient>
        <linearGradient id="prefix__paint3_linear_96_599" x1="59" y1="1.5" x2="60" y2="18"
            gradientUnits="userSpaceOnUse">
            <stop stop-color="#E12CFF" />
            <stop offset="1" stop-color="#7500D1" />
        </linearGradient>
        <linearGradient id="prefix__paint4_linear_96_599" x1="56" y1="1.5" x2="63" y2="17"
            gradientUnits="userSpaceOnUse">
            <stop stop-color="#01FFFD" />
            <stop offset="1" stop-color="#1533C9" />
        </linearGradient>
        <linearGradient id="prefix__paint5_linear_96_599" x1="65.5" y1="-.5" x2="67" y2="13"
            gradientUnits="userSpaceOnUse">
            <stop stop-color="#E12CFF" />
            <stop offset="1" stop-color="#7A03C9" />
        </linearGradient>
        <linearGradient id="prefix__paint6_linear_96_599" x1="33" y1="3" x2="48" y2="57.5"
            gradientUnits="userSpaceOnUse">
            <stop stop-color="#01FFFD" />
            <stop offset="1" stop-color="#151DC8" />
        </linearGradient>
        <linearGradient id="prefix__paint7_linear_96_599" x1="33" y1="3" x2="45" y2="40" gradientUnits="userSpaceOnUse">
            <stop stop-color="#01FFFD" />
            <stop offset="1" stop-color="#151DC8" />
        </linearGradient>
        <linearGradient id="prefix__paint8_linear_96_599" x1="28" y1="1" x2="31.5" y2="13.5"
            gradientUnits="userSpaceOnUse">
            <stop stop-color="#25FFFE" />
            <stop offset="1" stop-color="#0092E4" />
        </linearGradient>
        <linearGradient id="prefix__paint9_linear_96_599" x1="26.5" y1="16.5" x2="36" y2="36.5"
            gradientUnits="userSpaceOnUse">
            <stop stop-color="#21F7FC" />
            <stop offset="1" stop-color="#114ED4" />
        </linearGradient>
    </defs>
</svg>