<svg width="164" height="44" fill="none" xmlns="http://www.w3.org/2000/svg">
    <path
        d="M30.21 28.128l8.032-4.637c.425-.245.689-.703.689-1.194v-9.275c0-.49-.264-.948-.69-1.194l-8.03-4.636a1.383 1.383 0 00-1.379 0l-8.031 4.636a1.383 1.383 0 00-.69 1.194v16.574l-5.631 3.25-5.632-3.25v-6.504l5.632-3.25 3.715 2.143v-4.362l-3.026-1.747a1.383 1.383 0 00-1.378 0l-8.033 4.638a1.383 1.383 0 00-.689 1.194v9.274c0 .49.265.948.69 1.194l8.031 4.637c.425.245.953.245 1.378 0l8.032-4.637c.425-.245.689-.703.689-1.193V14.409l.101-.058 5.53-3.193 5.632 3.252v6.503l-5.632 3.251-3.709-2.141v4.362l3.02 1.745c.425.245.954.245 1.379 0v-.002z"
        fill="url(#prefix__paint0_linear_6950_20946)" />
    <path
        d="M54.048 35.498v-7.255c.787.99 2.215 1.545 3.87 1.545 4.225 0 7.08-3 7.08-7.574 0-4.573-2.623-7.573-6.728-7.573-1.894 0-3.352.7-4.226 1.835v-1.613H50v20.625l4.048.01zm3.37-9.206c-2.187 0-3.612-1.633-3.612-4.078 0-2.445 1.425-4.106 3.612-4.106 2.126 0 3.583 1.613 3.583 4.106 0 2.494-1.448 4.078-3.583 4.078zM74.19 29.788c4.515 0 7.74-3.206 7.74-7.574 0-4.367-3.225-7.573-7.74-7.573-4.516 0-7.74 3.203-7.74 7.573 0 4.371 3.224 7.574 7.74 7.574zm0-3.496c-2.184 0-3.67-1.662-3.67-4.078 0-2.416 1.49-4.106 3.67-4.106 2.18 0 3.67 1.658 3.67 4.106 0 2.449-1.483 4.078-3.67 4.078zM88.436 29.556V8.492h-4.048v21.064h4.048zM100.604 14.875l-3.058 9.467-3.086-9.467h-4.145l5.329 14.564-2.155 6.06h3.87l2.08-5.996 5.332-14.621-4.167-.007zM116.141 16.33c-.816-1.018-2.257-1.69-4.047-1.69-4.283 0-6.873 3-6.873 7.574s2.58 7.574 6.931 7.574c1.719 0 3.261-.645 4.019-1.719v1.935c0 1.368-.904 2.33-2.126 2.33h-6.757v3.176h7.399c3.319 0 5.531-2.009 5.531-5.07V14.873h-4.077v1.458zm-3.347 9.962c-2.158 0-3.584-1.613-3.584-4.078 0-2.464 1.426-4.106 3.584-4.106 2.157 0 3.609 1.613 3.609 4.106 0 2.494-1.426 4.078-3.609 4.078zM130.425 29.788c4.516 0 7.741-3.206 7.741-7.574 0-4.367-3.225-7.573-7.741-7.573-4.515 0-7.74 3.203-7.74 7.573 0 4.371 3.225 7.574 7.74 7.574zm0-3.496c-2.187 0-3.67-1.662-3.67-4.078 0-2.416 1.483-4.106 3.67-4.106s3.671 1.658 3.671 4.106c0 2.449-1.487 4.078-3.671 4.078zM144.465 29.556v-8.041c0-1.894 1.252-3.262 3.029-3.262 1.69 0 2.825 1.29 2.825 3.058v8.245h4.077v-9.148c0-3.38-2.154-5.767-5.483-5.767-2.009 0-3.638.845-4.454 2.258v-2.026h-4.07v14.683h4.076z"
        fill="#ffffff" />
    <defs>
        <linearGradient id="prefix__paint0_linear_6950_20946" x1="7.948" y1="32.248" x2="37.05" y2="11.028"
            gradientUnits="userSpaceOnUse">
            <stop stop-color="#A726C1" />
            <stop offset=".88" stop-color="#803BDF" />
            <stop offset="1" stop-color="#7B3FE4" />
        </linearGradient>
    </defs>
</svg>