<svg width="830" height="228" fill="none" xmlns="http://www.w3.org/2000/svg">
    <path
        d="M467.907 180.22c-4.145 5.899-9.645 10.283-16.501 13.153-6.856 2.711-14.509 4.066-22.959 4.066-6.696 0-12.834-.797-18.415-2.392-5.42-1.594-10.203-3.986-14.349-7.174-4.145-3.348-7.413-7.414-9.805-12.197-2.392-4.942-3.587-10.523-3.587-16.741 0-6.855 1.355-12.675 4.065-17.458 2.711-4.942 6.378-8.928 11.001-11.958 4.783-3.029 10.364-5.261 16.741-6.696 6.377-1.594 13.074-2.391 20.089-2.391h32.286c0-9.248-2.073-16.422-6.218-21.524-4.146-5.102-11.4-7.733-21.763-7.892-6.059 0-11.32 1.036-15.784 3.109-4.305 2.073-7.175 5.5-8.61 10.283h-27.981c.957-6.696 3.109-12.356 6.457-16.98 3.508-4.623 7.653-8.45 12.436-11.479 4.943-3.03 10.364-5.181 16.263-6.457a88.001 88.001 0 0118.175-1.913c7.813 0 15.067 1.036 21.763 3.109 6.696 2.072 12.516 5.58 17.458 10.522 5.581 5.74 9.327 12.596 11.241 20.568 1.913 7.971 2.869 16.661 2.869 26.067v67.92h-23.676l-1.196-15.545zm-1.434-40.417h-26.307c-4.624 0-9.248.399-13.871 1.196-4.624.638-8.61 2.312-11.958 5.022-3.189 2.551-4.783 6.298-4.783 11.24 0 6.059 2.153 10.682 6.457 13.871 4.464 3.029 9.885 4.544 16.263 4.544 4.942 0 9.486-.638 13.631-1.913 4.305-1.276 7.972-3.348 11.001-6.218 3.03-3.029 5.341-6.776 6.936-11.24 1.754-4.624 2.631-10.125 2.631-16.502zM537.598 17.357c4.943 0 9.008 1.514 12.197 4.544 3.348 3.029 5.022 7.174 5.022 12.436 0 5.101-1.674 9.167-5.022 12.196-3.189 3.03-7.254 4.544-12.197 4.544-5.261 0-9.486-1.514-12.675-4.544-3.189-3.029-4.783-7.095-4.783-12.196 0-5.262 1.594-9.407 4.783-12.436 3.189-3.03 7.414-4.544 12.675-4.544zm-13.871 178.408V69.731h27.264v126.034h-27.264zM767.673 67.579c10.044 0 18.893 1.594 26.546 4.783 7.653 3.189 14.11 7.653 19.371 13.392 5.421 5.58 9.486 12.357 12.197 20.328 2.71 7.972 4.065 16.821 4.065 26.546 0 9.885-1.355 18.814-4.065 26.786-2.551 7.812-6.457 14.588-11.719 20.328-5.261 5.739-11.798 10.124-19.61 13.153-7.653 3.029-16.582 4.544-26.785 4.544-10.045 0-18.894-1.515-26.546-4.544-7.653-3.189-14.11-7.573-19.372-13.153-5.102-5.74-9.008-12.596-11.718-20.568-2.551-7.971-3.827-16.82-3.827-26.546 0-9.725 1.276-18.574 3.827-26.546 2.71-7.971 6.696-14.747 11.957-20.328 5.262-5.74 11.719-10.203 19.372-13.392 7.653-3.189 16.422-4.783 26.307-4.783zm0 106.184c6.218 0 11.479-1.037 15.784-3.109 4.464-2.232 8.051-5.182 10.762-8.849 2.869-3.667 4.942-7.972 6.218-12.914 1.434-4.943 2.152-10.284 2.152-16.023 0-5.74-.718-11.081-2.152-16.024-1.276-5.102-3.349-9.486-6.218-13.153-2.711-3.667-6.298-6.537-10.762-8.61-4.305-2.072-9.566-3.109-15.784-3.109-6.059 0-11.241 1.037-15.545 3.11-4.305 2.072-7.892 4.942-10.762 8.609s-5.022 8.051-6.457 13.153c-1.276 4.943-1.914 10.284-1.914 16.024 0 5.739.638 11.08 1.914 16.023 1.435 4.942 3.507 9.247 6.218 12.914 2.869 3.667 6.457 6.617 10.762 8.849 4.464 2.072 9.725 3.109 15.784 3.109zM629.176 121.149h-19.61V31.684h-27.024v164.081h27.024v-50.94h21.285l33.242 50.94h31.568l-43.048-66.006 39.7-60.028h-30.612l-32.525 51.418zM363.856 69.373h-32.282V31.684h-8.342L284 84.987v6.892h20.146v62.38c0 14.725 3.317 25.324 9.952 31.797 6.796 6.472 18.042 9.709 33.738 9.709h15.049v-23.787h-12.622c-7.281 0-12.217-1.78-14.806-5.34-2.589-3.56-3.883-8.981-3.883-16.263V91.879h32.282V69.373z"
        fill="#FAFAFA" />
    <path
        d="M248.256 183.861l-43.453-59.038a27.584 27.584 0 00-19.155-11.105 5.385 5.385 0 01-4.055-2.663 5.393 5.393 0 01-.272-4.857c2.981-6.869 3.162-14.842-.045-22.135l-29.398-67.147A27.366 27.366 0 00126.792.515a27.39 27.39 0 00-25.085 16.401L72.309 84.063a27.612 27.612 0 00-.045 22.135 5.44 5.44 0 01-.273 4.857 5.409 5.409 0 01-4.055 2.663 27.582 27.582 0 00-19.154 11.105L5.328 183.861a27.405 27.405 0 00-1.664 29.927 27.436 27.436 0 0026.75 13.527l72.851-8.11a27.541 27.541 0 0019.185-11.03 5.404 5.404 0 014.342-2.194c1.71 0 3.314.817 4.343 2.194a27.541 27.541 0 0019.185 11.03l72.851 8.11c10.803 1.21 21.303-4.101 26.75-13.527a27.405 27.405 0 00-1.665-29.927zM91.312 92.491l29.443-67.223a6.626 6.626 0 016.052-3.964 6.626 6.626 0 016.053 3.964l29.443 67.223a6.858 6.858 0 01-6.294 9.607H97.591a6.878 6.878 0 01-5.749-3.102 6.867 6.867 0 01-.545-6.505h.015zm15.115 102.339a6.86 6.86 0 01-5.371 3.722l-72.927 8.11a6.63 6.63 0 01-6.46-3.253 6.59 6.59 0 01.408-7.217l43.5-59.098a6.845 6.845 0 015.9-2.784 6.845 6.845 0 015.568 3.419l.045.076 29.126 50.444.045.075a6.835 6.835 0 01.181 6.521l-.015-.015zm26.357-22.816a6.934 6.934 0 01-5.992 3.465 6.936 6.936 0 01-5.991-3.45l-22.377-38.748a6.887 6.887 0 010-6.914 6.932 6.932 0 015.991-3.465h44.74a6.904 6.904 0 015.991 3.45 6.885 6.885 0 010 6.914l-22.362 38.748zm99.147 31.395a6.626 6.626 0 01-6.46 3.268l-72.927-8.11a6.86 6.86 0 01-5.371-3.722 6.832 6.832 0 01.181-6.521l.046-.075 29.125-50.444.045-.076a6.845 6.845 0 015.568-3.419 6.883 6.883 0 015.901 2.784l43.499 59.098a6.62 6.62 0 01.408 7.217h-.015z"
        fill="#E81899" />
</svg>